<?xml version="1.0" encoding="UTF-8" standalone="no"?>
<!-- Generator: Adobe Illustrator 15.0.0, SVG Export Plug-In . SVG Version: 6.00 Build 0)  -->

<svg
   xmlns:dc="http://purl.org/dc/elements/1.1/"
   xmlns:cc="http://creativecommons.org/ns#"
   xmlns:rdf="http://www.w3.org/1999/02/22-rdf-syntax-ns#"
   xmlns:svg="http://www.w3.org/2000/svg"
   xmlns="http://www.w3.org/2000/svg"
   xmlns:sodipodi="http://sodipodi.sourceforge.net/DTD/sodipodi-0.dtd"
   xmlns:inkscape="http://www.inkscape.org/namespaces/inkscape"
   version="1.1"
   id="Layer_1"
   x="0px"
   y="0px"
   width="80px"
   height="80px"
   viewBox="0 0 80 80"
   enable-background="new 0 0 80 80"
   xml:space="preserve"
   sodipodi:docname="pago.svg"
   inkscape:version="0.92.5 (2060ec1f9f, 2020-04-08)"><metadata
   id="metadata78"><rdf:RDF><cc:Work
       rdf:about=""><dc:format>image/svg+xml</dc:format><dc:type
         rdf:resource="http://purl.org/dc/dcmitype/StillImage" /><dc:title></dc:title></cc:Work></rdf:RDF></metadata><defs
   id="defs76" /><sodipodi:namedview
   pagecolor="#ffffff"
   bordercolor="#666666"
   borderopacity="1"
   objecttolerance="10"
   gridtolerance="10"
   guidetolerance="10"
   inkscape:pageopacity="0"
   inkscape:pageshadow="2"
   inkscape:window-width="1920"
   inkscape:window-height="1057"
   id="namedview74"
   showgrid="false"
   inkscape:zoom="11.1"
   inkscape:cx="40"
   inkscape:cy="40"
   inkscape:window-x="-8"
   inkscape:window-y="-8"
   inkscape:window-maximized="1"
   inkscape:current-layer="Layer_1" />
<path
   fill="#78CFCF"
   d="M73.754,5.933H6.25C2.805,5.933,0,8.739,0,12.185v40.006c0,3.445,2.805,6.252,6.25,6.252h31.708v-2.502H6.25  c-2.07,0-3.75-1.688-3.75-3.75V12.185c0-2.072,1.68-3.75,3.75-3.75h67.503c2.069,0,3.75,1.678,3.75,3.75v25.358  c0.435,0,2.103-0.1,2.496,0V12.185C80,8.739,77.197,5.933,73.754,5.933z"
   id="path45" />
<g
   id="g59">
	<rect
   x="8.75"
   y="19.989"
   fill="#78CFCF"
   width="6.251"
   height="3.391"
   id="rect47" />
	<path
   fill="#78CFCF"
   d="M8.75,25.604v1.112c0,1.38,1.117,2.499,2.501,2.499h5.969v-3.611H8.75z"
   id="path49" />
	<path
   fill="#78CFCF"
   d="M28.751,17.771v-1.058c0-1.38-1.116-2.499-2.5-2.499h-5.978v3.557H28.751z"
   id="path51" />
	<path
   fill="#78CFCF"
   d="M17.22,14.215h-5.97c-1.384,0-2.501,1.119-2.501,2.499v1.058h8.47v-3.557H17.22z"
   id="path53" />
	<rect
   x="22.501"
   y="19.989"
   fill="#78CFCF"
   width="6.25"
   height="3.391"
   id="rect55" />
	<path
   fill="#78CFCF"
   d="M20.273,29.216h5.978c1.384,0,2.5-1.119,2.5-2.499v-1.112h-8.478V29.216L20.273,29.216z"
   id="path57" />
</g>
<path
   fill="#78CFCF"
   d="M36.252,48.438H10.117c-0.698,0-1.25-0.562-1.25-1.254c0-0.695,0.551-1.248,1.25-1.248h26.135  c0.694,0,1.249,0.553,1.249,1.248C37.501,47.876,36.946,48.438,36.252,48.438z"
   id="path61" />
<g
   id="g67">
	<path
   fill="#78CFCF"
   d="M42.501,36.341h-12.5c-0.688,0-1.25,0.562-1.25,1.251c0,0.695,0.562,1.248,1.25,1.248h12.5   c0.688,0,1.251-0.553,1.251-1.248C43.752,36.903,43.189,36.341,42.501,36.341z"
   id="path63" />
	<path
   fill="#78CFCF"
   d="M22.98,36.341H10.29c-0.688,0-1.251,0.562-1.251,1.251c0,0.695,0.562,1.248,1.251,1.248h12.69   c0.688,0,1.251-0.553,1.251-1.248C24.231,36.903,23.669,36.341,22.98,36.341z"
   id="path65" />
</g>
<path
   fill="#78CFCF"
   d="M78.752,41.704h-4.531v-7.1c0-7.364-6-13.357-13.365-13.357c-7.373,0-13.354,5.993-13.354,13.357v7.1h-4.544  c-0.687,0-1.249,0.55-1.249,1.244v30.684c0,3.519,2.846,6.368,6.363,6.368h25.572C77.148,80,80,77.148,80,73.632V42.948  C80,42.254,79.447,41.704,78.752,41.704z M49.993,34.604c0-5.987,4.875-10.859,10.862-10.859c5.99,0,10.865,4.872,10.865,10.859v7.1  H49.993V34.604z M77.504,73.632c0,2.138-1.732,3.873-3.859,3.873H48.072c-2.135,0-3.864-1.735-3.864-3.873V44.2h33.296V73.632z"
   id="path69" />
<path
   fill="#78CFCF"
   d="M60.855,51.083c-3.513,0-6.362,2.851-6.362,6.358c0,1.816,0.79,3.543,2.127,4.742v4.219  c0,2.324,1.899,4.216,4.235,4.216c2.326,0,4.229-1.892,4.229-4.216v-4.219c1.348-1.199,2.137-2.936,2.137-4.742  C67.221,53.934,64.359,51.083,60.855,51.083z M63.096,60.574l-0.515,0.375v5.453c0,0.947-0.774,1.714-1.726,1.714  c-0.957,0-1.736-0.767-1.736-1.714v-5.453l-0.514-0.375c-1.01-0.725-1.61-1.897-1.61-3.133c0-2.121,1.728-3.856,3.86-3.856  c2.127,0,3.865,1.735,3.865,3.856C64.723,58.67,64.107,59.84,63.096,60.574z"
   id="path71" />
<path
   style="fill:#3de928;fill-opacity:1;stroke-width:0.09009009"
   d="M 5.350198,58.342449 C 4.042866,58.150852 2.9047245,57.560836 1.8829071,56.544995 1.2580286,55.92377 1.0360009,55.626641 0.73515387,55.009009 -0.0225996,53.453359 0.04912546,55.691886 0.01927887,32.666667 0.00156836,19.003855 0.02356714,11.936554 0.08526698,11.467408 0.39885715,9.0829655 1.8864841,7.2103183 4.164581,6.3323059 L 4.9099099,6.045045 H 39.954955 75 l 0.728869,0.2503593 c 2.247421,0.7719661 3.873579,2.7673848 4.180365,5.1296257 0.04994,0.384505 0.08618,5.913814 0.08755,13.358754 l 0.0024,12.702702 -1.215787,0.0077 -1.215786,0.0077 -7.21e-4,-12.665334 C 77.566443,16.570512 77.533935,11.972291 77.4733,11.598612 77.276214,10.384015 76.454937,9.2947179 75.337005,8.7651471 L 74.72973,8.4774775 H 40 5.2702703 L 4.6629953,8.7651471 C 3.5387296,9.2977182 2.7252529,10.389481 2.5203309,11.640806 2.3964341,12.397362 2.403384,51.983751 2.527548,52.748997 2.7071843,53.85613 3.3021007,54.75984 4.2580241,55.377683 5.2810388,56.038889 4.1737521,56 21.977244,56 h 15.950684 v 1.216216 1.216216 l -16.058559,-0.01124 c -8.832207,-0.0062 -16.265834,-0.04162 -16.519171,-0.07874 z"
   id="path80"
   inkscape:connector-curvature="0" /><path
   style="fill:#3de928;fill-opacity:1;stroke-width:0.09009009"
   d="m 8.7678869,16.987412 c 0.03072,-0.398365 0.1060894,-0.894987 0.1674883,-1.103604 0.1499544,-0.509505 0.9747962,-1.33766 1.4804828,-1.486429 0.259746,-0.07642 1.33236,-0.109091 3.581081,-0.109091 h 3.210268 V 16 17.711712 H 12.95962 8.7120329 Z"
   id="path82"
   inkscape:connector-curvature="0" /><path
   style="fill:#3de928;fill-opacity:1;stroke-width:0.09009009"
   d="m 8.7987988,23.327327 c -0.033033,-0.03303 -0.06006,-0.783033 -0.06006,-1.666666 v -1.606607 h 3.1081082 3.108108 v 1.666667 1.666666 h -3.048048 c -1.676427,0 -3.0750751,-0.02703 -3.1081082,-0.06006 z"
   id="path84"
   inkscape:connector-curvature="0" /><path
   style="fill:#3de928;fill-opacity:1;stroke-width:0.09009009"
   d="M 10.225225,28.93808 C 9.2927331,28.496495 8.8625275,27.763691 8.7699291,26.459157 L 8.7117581,25.63964 h 4.2477249 4.247724 v 1.756756 1.756757 l -3.265766,-8.8e-4 c -3.247083,-8.74e-4 -3.268342,-0.0021 -3.716216,-0.214193 z"
   id="path86"
   inkscape:connector-curvature="0" /><path
   style="fill:#3de928;fill-opacity:1;stroke-width:0.09009009"
   d="m 20.27027,27.39953 v -1.75989 h 4.24498 4.244981 l -0.0388,0.833333 c -0.04478,0.96171 -0.23749,1.487534 -0.723169,1.973212 -0.664736,0.664737 -0.627969,0.658954 -4.372133,0.687579 l -3.355856,0.02566 z"
   id="path88"
   inkscape:connector-curvature="0" /><path
   style="fill:#3de928;fill-opacity:1;stroke-width:0.09009009"
   d="m 28.776449,21.675676 c 0,-0.966217 0.01325,-1.361487 0.02945,-0.878379 0.0162,0.483108 0.0162,1.273649 0,1.756757 -0.0162,0.483108 -0.02945,0.08784 -0.02945,-0.878378 z"
   id="path90"
   inkscape:connector-curvature="0" /><path
   style="fill:#3de928;fill-opacity:1;stroke-width:0.09009009"
   d="m 20.27027,16 v -1.711712 h 3.291182 c 3.597297,0 3.593249,-5.13e-4 4.279561,0.543055 0.542058,0.429319 0.835783,1.123814 0.881729,2.084797 l 0.03804,0.795572 H 24.515524 20.27027 Z"
   id="path92"
   inkscape:connector-curvature="0" /><path
   style="fill:#3de928;fill-opacity:1;stroke-width:0.09009009"
   d="m 22.522523,21.720721 v -1.666667 h 3.108108 3.108108 v 1.666667 1.666666 h -3.108108 -3.108108 z"
   id="path94"
   inkscape:connector-curvature="0" /><path
   style="fill:#3de928;fill-opacity:1;stroke-width:0.09009009"
   d="M 9.6665359,38.61626 C 8.8727093,38.132235 8.924406,36.90506 9.7552314,36.510808 10.042383,36.374545 10.691067,36.360374 16.635237,36.3605 c 6.070206,1.3e-4 6.586155,0.01197 6.871873,0.157658 0.444418,0.226615 0.651813,0.553732 0.659159,1.03967 0.0073,0.479849 -0.173987,0.805039 -0.590083,1.058749 -0.278515,0.169821 -0.505169,0.175542 -6.954564,0.175542 -6.453506,0 -6.675889,-0.0056 -6.9550861,-0.175859 z"
   id="path96"
   inkscape:connector-curvature="0" /><path
   style="fill:#3de928;fill-opacity:1;stroke-width:0.09009009"
   d="M 9.6846847,48.305257 C 8.9742492,47.989502 8.7034218,47.149269 9.1162971,46.541853 9.2336866,46.369151 9.429867,46.177182 9.5522536,46.115253 9.7272574,46.0267 12.64319,46.002373 23.207398,46.001328 L 36.640021,46 l 0.302916,0.204135 c 0.81308,0.547934 0.596195,1.872374 -0.349629,2.135069 -0.219744,0.06103 -4.780617,0.0912 -13.4852,0.0892 C 12.347224,48.42593 9.9057987,48.403532 9.6846847,48.305257 Z"
   id="path98"
   inkscape:connector-curvature="0" /><path
   style="fill:#3de928;fill-opacity:1;stroke-width:0.09009009"
   d="m 29.402407,38.619994 c -0.155253,-0.09467 -0.347821,-0.265699 -0.427928,-0.380069 -0.204627,-0.292145 -0.18612,-0.956226 0.03684,-1.321923 0.349623,-0.573449 0.14394,-0.557642 7.255957,-0.557642 5.73966,0 6.486967,0.016 6.75823,0.144727 0.834131,0.395821 0.892942,1.628146 0.100752,2.111173 -0.279103,0.170179 -0.500842,0.175859 -6.864996,0.175859 -6.315426,0 -6.587785,-0.0068 -6.858854,-0.172125 z"
   id="path100"
   inkscape:connector-curvature="0" /><path
   style="fill:#3de928;fill-opacity:1;stroke-width:0.09009009"
   d="m 46.801802,79.831296 c -1.788022,-0.397102 -3.277252,-1.467107 -4.183925,-3.006129 -0.435491,-0.739219 -0.681504,-1.464918 -0.808768,-2.38574 -0.06669,-0.482513 -0.0974,-5.579581 -0.0974,-16.16525 0,-15.204758 0.0029,-15.466592 0.1777,-15.826815 C 42.196994,41.813366 42.184803,41.816037 45,41.765766 l 2.522523,-0.04505 0.04804,-4.504505 c 0.04132,-3.874335 0.07053,-4.605331 0.208832,-5.225225 1.202835,-5.391498 5.152129,-9.325182 10.508893,-10.467354 1.089837,-0.232375 4.045298,-0.232375 5.135135,0 5.301391,1.130366 9.192583,4.950502 10.473735,10.282477 0.183813,0.765005 0.198923,1.097254 0.24399,5.365057 l 0.04804,4.54955 2.522523,0.04505 c 2.795306,0.04992 2.871869,0.06604 3.12152,0.657545 0.180245,0.427057 0.180667,31.625426 4.5e-4,32.495608 -0.457119,2.207088 -2.075405,3.999307 -4.293132,4.754558 l -0.72073,0.245442 -13.738739,0.01621 c -11.160534,0.01317 -13.840176,-0.0063 -14.279279,-0.103836 z m 27.841432,-2.439584 c 1.424387,-0.370908 2.476519,-1.500953 2.794581,-3.001526 0.105796,-0.499127 0.126881,-3.031428 0.128189,-15.394691 l 0.0016,-14.797297 H 60.855856 44.144144 l 5.23e-4,14.752252 c 3.15e-4,9.039033 0.03416,14.957652 0.08738,15.282618 0.184159,1.124536 0.92816,2.215264 1.899253,2.784363 0.896284,0.525256 0.216184,0.501719 14.68311,0.508172 11.735039,0.0052 13.354774,-0.01045 13.828829,-0.133891 z m -2.952475,-40.107928 -0.03164,-4.481982 -0.239787,-0.882339 c -0.53231,-1.958734 -1.451804,-3.542357 -2.894388,-4.984942 -1.445863,-1.445863 -2.982572,-2.335283 -4.994261,-2.890591 -0.811928,-0.224125 -0.999107,-0.240989 -2.674822,-0.240989 -1.675715,0 -1.862895,0.01686 -2.674823,0.240989 -2.011688,0.555308 -3.548397,1.444728 -4.99426,2.890591 -1.443884,1.443884 -2.355858,3.019711 -2.900246,5.011425 l -0.233929,0.855856 -0.03165,4.481982 -0.03165,4.481982 h 10.866549 10.866549 z"
   id="path102"
   inkscape:connector-curvature="0" /><path
   style="fill:#3de928;fill-opacity:1;stroke-width:0.09009009"
   d="m 60,70.496264 c -1.493778,-0.289575 -2.891103,-1.651163 -3.237789,-3.154983 -0.05013,-0.217434 -0.09213,-1.463444 -0.09334,-2.76891 l -0.0022,-2.373575 -0.529924,-0.578319 c -0.599541,-0.654293 -1.193226,-1.757561 -1.424661,-2.647504 -0.203122,-0.781071 -0.202774,-2.28423 7.09e-4,-3.063063 0.539437,-2.064695 2.144981,-3.787281 4.161083,-4.464419 0.534255,-0.179437 0.965456,-0.253189 1.666667,-0.285063 1.230398,-0.05593 2.036775,0.113035 3.153153,0.660692 0.716067,0.351278 0.982406,0.547257 1.630662,1.199884 0.614808,0.618954 0.851819,0.937309 1.147753,1.541675 0.833391,1.701979 0.931521,3.451058 0.288916,5.149687 -0.237435,0.627625 -0.945378,1.717762 -1.388848,2.13864 l -0.327132,0.310465 v 2.320236 c 0,2.594488 -0.0531,2.993043 -0.517702,3.885388 -0.835275,1.6043 -2.703227,2.482781 -4.527343,2.129169 z m 1.839351,-2.670294 c 0.194713,-0.137166 0.448352,-0.428067 0.563642,-0.646446 0.206895,-0.391891 0.20962,-0.434832 0.20962,-3.303138 v -2.906085 l 0.451092,-0.331133 c 1.217686,-0.893863 1.881439,-2.442128 1.630594,-3.803511 -0.597728,-3.243987 -4.601899,-4.399371 -6.757946,-1.949973 -1.517704,1.724204 -1.192182,4.35594 0.711654,5.753484 l 0.451092,0.331133 0.002,2.897732 c 0.0018,2.635268 0.01723,2.93132 0.170375,3.268552 0.179212,0.394638 0.643219,0.805468 1.060528,0.938989 0.432458,0.138368 1.117704,0.0249 1.507371,-0.249604 z"
   id="path104"
   inkscape:connector-curvature="0" /></svg>