<?xml version="1.0" encoding="UTF-8" standalone="no"?>
<!-- Generator: Adobe Illustrator 19.0.0, SVG Export Plug-In . SVG Version: 6.00 Build 0)  -->

<svg
   xmlns:dc="http://purl.org/dc/elements/1.1/"
   xmlns:cc="http://creativecommons.org/ns#"
   xmlns:rdf="http://www.w3.org/1999/02/22-rdf-syntax-ns#"
   xmlns:svg="http://www.w3.org/2000/svg"
   xmlns="http://www.w3.org/2000/svg"
   xmlns:sodipodi="http://sodipodi.sourceforge.net/DTD/sodipodi-0.dtd"
   xmlns:inkscape="http://www.inkscape.org/namespaces/inkscape"
   version="1.1"
   id="Capa_1"
   x="0px"
   y="0px"
   viewBox="0 0 79.999997 79.999997"
   xml:space="preserve"
   sodipodi:docname="pizza.svg"
   inkscape:version="0.92.5 (2060ec1f9f, 2020-04-08)"
   width="80"
   height="80"><metadata
   id="metadata6467"><rdf:RDF><cc:Work
       rdf:about=""><dc:format>image/svg+xml</dc:format><dc:type
         rdf:resource="http://purl.org/dc/dcmitype/StillImage" /><dc:title></dc:title></cc:Work></rdf:RDF></metadata><defs
   id="defs6465" /><sodipodi:namedview
   pagecolor="#ffffff"
   bordercolor="#666666"
   borderopacity="1"
   objecttolerance="10"
   gridtolerance="10"
   guidetolerance="10"
   inkscape:pageopacity="0"
   inkscape:pageshadow="2"
   inkscape:window-width="1920"
   inkscape:window-height="1057"
   id="namedview6463"
   showgrid="false"
   inkscape:zoom="0.59765444"
   inkscape:cx="247.63474"
   inkscape:cy="197.43851"
   inkscape:window-x="-8"
   inkscape:window-y="-8"
   inkscape:window-maximized="1"
   inkscape:current-layer="Capa_1" />
<g
   id="g6292"
   transform="matrix(0.2025949,0,0,0.21883754,1.672994,-2.8815111)">
	<g
   id="g6290">
		<path
   d="m 383.145,152.382 c -1.024,-1.536 -2.048,-3.072 -3.584,-3.584 1.536,-2.048 2.56,-5.12 2.048,-7.68 -0.512,-11.264 -5.632,-34.304 -30.72,-62.976 -25.6,-28.672 -48.128,-36.352 -58.88,-38.4 -2.048,-0.512 -3.584,0 -5.12,0 -0.512,-2.56 -2.048,-5.12 -4.096,-6.656 -8.704,-7.168 -29.184,-18.432 -67.584,-18.432 -38.4,0 -58.88,11.776 -68.096,18.432 -4.608,3.584 -6.144,9.216 -3.584,14.336 l 8.192,18.944 51.2,123.904 c 0,0.512 0.512,1.024 1.024,1.536 -1.024,-0.512 -2.56,-0.512 -4.096,-0.512 l -134.656,11.776 -20.48,1.536 c -5.632,0.512 -10.24,4.608 -11.264,10.24 -2.048,11.264 -2.56,34.816 15.872,68.096 17.92,33.792 38.4,46.08 48.64,50.688 1.536,0.512 3.072,1.024 5.12,1.024 0,0 0,0 0.512,0 0,2.56 1.024,5.12 2.56,7.68 7.168,8.704 24.064,25.088 61.44,33.792 13.312,3.072 24.576,4.096 34.304,4.096 17.408,0 29.184,-3.584 35.84,-6.656 1.536,-0.512 3.072,-2.048 4.096,-3.072 2.048,1.536 4.608,3.072 7.168,3.072 1.024,0 2.048,0 3.072,0 12.288,0 34.304,-3.584 62.464,-23.552 31.232,-22.016 41.472,-43.52 45.056,-54.272 0.512,-1.536 0.512,-3.584 0.512,-5.12 2.56,-0.512 5.12,-1.536 7.168,-3.584 8.192,-8.192 22.016,-27.136 26.112,-65.024 5.12,-37.888 -4.096,-59.904 -10.24,-69.632 z M 287.401,51.006 c 0.512,-1.024 1.536,-1.536 2.048,-1.024 9.728,2.048 30.208,8.704 53.248,34.816 23.04,26.112 27.648,46.592 28.16,56.832 0,1.024 -0.512,1.536 -1.536,2.048 l -8.192,3.072 C 360.105,136.51 354.985,117.054 333.993,92.99 313.001,68.926 293.545,61.758 283.305,59.71 Z m 74.24,167.424 c -3.584,31.232 -15.36,46.08 -20.48,51.2 -0.512,0.512 -1.024,0.512 -1.536,0 l -59.904,-34.816 -52.736,-33.28 59.904,-19.968 65.024,-18.432 c 0.512,0 1.024,0 1.536,0.512 4.096,6.144 11.776,23.552 8.192,54.784 z M 280.233,69.438 c 6.656,1.024 25.088,6.656 46.592,30.72 20.992,23.552 24.064,42.496 24.576,49.152 0,0.512 -0.512,1.024 -1.024,1.024 l -66.048,21.504 -59.904,16.896 25.088,-57.856 29.696,-60.928 c 0,-0.512 0.512,-0.512 1.024,-0.512 z m -128,-25.6 c -0.512,-1.024 0,-2.048 0.512,-2.56 8.192,-6.144 26.624,-16.384 61.44,-16.384 34.816,0 53.248,10.24 60.928,16.384 0.512,0.512 1.024,1.536 0.512,2.56 l -3.584,8.192 c -8.704,-6.144 -26.112,-15.36 -57.856,-15.36 -31.744,0 -50.176,9.216 -58.368,15.36 z m 8.192,18.944 c 0,-0.512 0,-1.024 0.512,-1.536 5.632,-4.096 22.016,-14.336 53.76,-14.336 30.72,0 46.592,8.704 53.248,14.336 0.512,0.512 0.512,1.024 0.512,1.536 l -27.648,64 -28.672,59.392 z m 52.736,135.168 c 0,0.512 0,0.512 0,1.024 0,0 -0.512,0 -1.024,0.512 -0.512,0 -0.512,0 -1.024,-0.512 0,-0.512 0,-1.024 -0.512,-1.536 l -0.512,-0.512 c 0.512,0 1.536,0.512 2.048,0.512 0.512,0.512 0.512,0.512 1.024,0.512 z m -6.144,15.36 12.8,61.952 10.752,66.56 c 0,0.512 0,1.024 -0.512,1.536 -6.144,3.072 -24.576,8.704 -55.296,1.536 -30.72,-7.168 -44.032,-20.48 -48.64,-26.112 -0.512,-0.512 -0.512,-1.024 0,-1.536 l 41.472,-55.808 z m -102.4,110.592 c -0.512,0.512 -1.536,1.024 -2.56,0.512 -7.168,-3.072 -26.624,-14.336 -44.032,-46.592 -16.384,-30.72 -16.384,-51.712 -14.336,-61.44 0,-1.024 1.024,-1.536 2.048,-1.536 l 9.216,-0.512 c -1.536,10.24 -1.024,30.72 13.824,58.368 15.36,28.16 31.744,39.424 41.472,44.032 z M 77.481,268.094 c -14.848,-27.648 -13.824,-46.592 -12.8,-53.76 0,-0.512 0.512,-1.024 1.024,-1.024 l 134.144,-11.264 c -0.512,0.512 -1.024,0.512 -1.024,1.024 l -38.912,52.224 -42.496,52.736 c -0.512,0.512 -1.024,0.512 -1.536,0.512 -6.656,-3.072 -23.04,-12.8 -38.4,-40.448 z m 155.648,96.256 c -7.168,3.584 -28.16,10.24 -64,2.048 -34.304,-8.192 -49.664,-22.528 -55.808,-30.208 -0.512,-0.512 -0.512,-1.536 0,-2.56 l 5.632,-7.168 c 6.656,8.192 22.016,20.992 52.736,28.16 11.776,2.56 21.504,3.584 30.208,3.584 14.336,0 24.064,-3.072 30.208,-5.632 l 1.536,9.216 c 1.024,1.536 0.512,2.56 -0.512,2.56 z m 10.752,-23.04 -13.824,-68.096 -10.24,-61.44 54.784,31.744 56.832,36.352 c 0.512,0.512 0.512,1.024 0.512,1.536 -2.048,6.656 -9.728,24.064 -35.84,42.496 -26.112,17.92 -44.544,19.456 -51.712,18.944 0,-0.512 -0.512,-0.512 -0.512,-1.536 z m 65.024,0.512 c -28.672,19.968 -49.664,22.016 -59.392,21.504 -1.024,0 -1.536,-0.512 -2.048,-1.536 l -1.536,-9.216 c 0.512,0 0.512,0 1.024,0 10.752,0 30.208,-3.072 55.296,-20.48 26.112,-18.432 35.84,-36.352 38.912,-46.08 l 7.68,4.608 c 1.024,0.512 1.024,1.536 1.024,2.56 -2.048,7.68 -10.752,27.648 -40.96,48.64 z M 383.657,220.99 c -4.096,34.816 -16.384,51.712 -23.552,58.88 -0.512,0.512 -1.536,1.024 -2.56,0.512 l -7.68,-4.608 c 7.168,-7.68 18.432,-24.576 22.016,-55.808 3.584,-31.744 -3.584,-50.688 -8.704,-59.904 l 8.704,-2.56 c 1.024,-0.512 2.048,0 2.56,1.024 5.12,8.192 13.312,27.648 9.216,62.464 z"
   id="path6288"
   inkscape:connector-curvature="0" />
	</g>
</g>
<g
   id="g6298"
   transform="matrix(0.2025949,0,0,0.21883754,1.672994,-2.8815111)">
	<g
   id="g6296">
		<path
   d="m 236.201,57.662 c -10.24,0 -18.432,8.192 -18.432,18.432 0,10.24 8.192,18.432 18.432,18.432 10.24,0 18.432,-8.192 18.432,-18.432 0,-10.24 -8.192,-18.432 -18.432,-18.432 z m 0,27.136 c -4.608,0 -8.192,-3.584 -8.192,-8.192 0,-4.608 3.584,-8.192 8.192,-8.192 4.608,0 8.192,3.584 8.192,8.192 0,4.608 -3.584,8.192 -8.192,8.192 z"
   id="path6294"
   inkscape:connector-curvature="0" />
	</g>
</g>
<g
   id="g6304"
   transform="matrix(0.2025949,0,0,0.21883754,1.672994,-2.8815111)">
	<g
   id="g6302">
		<path
   d="m 212.137,100.158 c -9.728,0 -17.408,7.68 -17.408,17.408 0,9.728 7.68,17.408 17.408,17.408 9.728,0 17.408,-7.68 17.408,-17.408 0,-9.728 -7.68,-17.408 -17.408,-17.408 z m -0.512,24.576 c -4.096,0 -7.168,-3.072 -7.168,-7.168 0,-4.096 3.072,-7.168 7.168,-7.168 4.096,0 7.168,3.072 7.168,7.168 0,4.096 -3.072,7.168 -7.168,7.168 z"
   id="path6300"
   inkscape:connector-curvature="0" />
	</g>
</g>
<g
   id="g6310"
   transform="matrix(0.2025949,0,0,0.21883754,1.672994,-2.8815111)">
	<g
   id="g6308">
		<path
   d="m 303.273,99.646 c -5.632,-6.144 -15.36,-6.656 -21.504,-1.024 -3.072,2.56 -4.608,6.656 -5.12,10.24 0,4.096 1.024,8.192 3.584,10.752 2.56,3.584 6.656,5.632 10.752,5.632 0.512,0 0.512,0 1.024,0 3.584,0 7.168,-1.536 10.24,-4.096 6.144,-5.632 6.656,-15.36 1.024,-21.504 z m -8.704,14.848 c -1.024,1.024 -2.048,1.536 -3.584,1.024 -1.536,0 -2.56,-0.512 -3.584,-1.536 -1.024,-1.024 -1.536,-2.048 -1.024,-3.584 0.512,-1.536 1.024,-3.072 2.048,-3.584 1.024,-1.024 2.048,-1.024 3.072,-1.024 1.536,0 2.56,0.512 3.584,1.536 2.048,2.048 1.536,5.12 -0.512,7.168 z"
   id="path6306"
   inkscape:connector-curvature="0" />
	</g>
</g>
<g
   id="g6316"
   transform="matrix(0.2025949,0,0,0.21883754,1.672994,-2.8815111)">
	<g
   id="g6314">
		<path
   d="m 344.745,225.086 c -3.584,-3.584 -7.68,-6.144 -12.288,-6.656 -9.728,-1.024 -18.944,6.144 -19.968,15.872 -1.024,9.728 6.144,18.944 15.872,19.968 0.512,0 1.536,0 2.048,0 9.216,0 16.896,-6.656 17.92,-15.872 0.512,-4.608 -1.024,-9.728 -3.584,-13.312 z m -15.36,19.456 c -4.608,-0.512 -7.68,-4.608 -7.168,-8.704 0.512,-4.608 4.608,-7.68 8.704,-7.168 2.048,0 4.096,1.536 5.12,3.072 1.024,1.536 2.048,3.584 2.048,5.632 -0.512,4.608 -4.608,7.68 -8.704,7.168 z"
   id="path6312"
   inkscape:connector-curvature="0" />
	</g>
</g>
<g
   id="g6322"
   transform="matrix(0.2025949,0,0,0.21883754,1.672994,-2.8815111)">
	<g
   id="g6320">
		<path
   d="m 349.353,179.006 c -2.048,-3.072 -5.632,-5.12 -9.728,-5.632 -4.096,-0.512 -8.192,0.512 -11.264,3.072 -3.072,2.56 -5.12,6.144 -5.632,10.24 -0.512,4.096 0.512,8.192 3.072,11.264 2.56,3.072 6.144,5.12 10.24,5.632 0.512,0 1.024,0 1.536,0 3.584,0 6.656,-1.024 9.216,-3.072 3.072,-2.56 5.12,-6.144 5.632,-10.24 0.512,-4.096 -0.512,-8.192 -3.072,-11.264 z m -8.704,13.312 c -1.024,1.024 -2.56,1.024 -3.584,1.024 -1.536,0 -2.56,-1.024 -3.072,-2.048 -1.024,-1.024 -1.024,-2.56 -1.024,-3.584 0,-1.536 1.024,-2.56 2.048,-3.072 1.024,-1.024 2.56,-1.024 3.584,-1.024 1.536,0 2.56,1.024 3.072,2.048 0.512,1.024 1.024,2.56 1.024,3.584 0,1.024 -1.024,2.56 -2.048,3.072 z"
   id="path6318"
   inkscape:connector-curvature="0" />
	</g>
</g>
<g
   id="g6328"
   transform="matrix(0.2025949,0,0,0.21883754,1.672994,-2.8815111)">
	<g
   id="g6326">
		<path
   d="m 272.553,254.27 c -3.072,-4.096 -6.656,-6.656 -11.264,-7.168 -4.608,-1.024 -9.216,0 -13.312,3.072 -7.68,5.632 -9.728,16.384 -4.096,24.576 3.072,4.608 8.704,7.168 14.336,7.168 3.584,0 7.168,-1.024 10.24,-3.072 4.096,-2.56 6.656,-6.656 7.168,-11.264 1.024,-4.608 0,-9.216 -3.072,-13.312 z m -7.168,11.776 c -0.512,2.048 -1.536,3.584 -3.072,4.608 -3.072,2.56 -7.68,1.536 -10.24,-2.048 -2.048,-3.072 -1.536,-7.68 2.048,-10.24 3.072,-2.048 7.68,-1.536 10.24,2.048 1.024,1.536 1.536,3.584 1.024,5.632 z"
   id="path6324"
   inkscape:connector-curvature="0" />
	</g>
</g>
<g
   id="g6334"
   transform="matrix(0.2025949,0,0,0.21883754,1.672994,-2.8815111)">
	<g
   id="g6332">
		<path
   d="m 199.849,299.326 c -4.096,-1.024 -8.192,-0.512 -11.264,2.048 -3.584,2.048 -5.632,5.632 -6.656,9.216 -2.56,8.192 2.56,16.384 10.752,18.432 1.024,0.512 2.56,0.512 3.584,0.512 6.656,0 13.312,-4.608 14.848,-11.776 2.048,-8.192 -3.072,-16.384 -11.264,-18.432 z m 0.512,16.384 c -0.512,2.56 -3.072,4.096 -6.144,3.584 -1.536,-0.512 -2.56,-1.024 -3.072,-2.048 -0.512,-1.024 0,-2.56 0,-4.096 0.512,-1.536 1.024,-2.56 2.048,-3.072 1.024,-0.512 1.536,-0.512 2.56,-0.512 0.512,0 1.024,0 1.024,0 2.56,0.512 4.096,3.072 3.584,6.144 z"
   id="path6330"
   inkscape:connector-curvature="0" />
	</g>
</g>
<g
   id="g6340"
   transform="matrix(0.2025949,0,0,0.21883754,1.672994,-2.8815111)">
	<g
   id="g6338">
		<path
   d="m 109.225,226.11 c -4.608,-8.704 -15.872,-12.288 -24.576,-7.168 -8.704,4.608 -12.288,15.872 -7.168,24.576 3.072,6.144 9.728,9.728 15.872,9.728 3.072,0 5.632,-0.512 8.704,-2.048 8.704,-5.12 11.776,-16.384 7.168,-25.088 z m -12.288,15.872 c -4.096,2.048 -8.704,0.512 -10.752,-3.072 -2.048,-4.096 -0.512,-8.704 3.072,-10.752 4.096,-2.048 8.704,-0.512 10.752,3.072 2.048,3.584 0.512,8.704 -3.072,10.752 z"
   id="path6336"
   inkscape:connector-curvature="0" />
	</g>
</g>
<g
   id="g6346"
   transform="matrix(0.2025949,0,0,0.21883754,1.672994,-2.8815111)">
	<g
   id="g6344">
		<path
   d="m 156.329,228.158 c -2.048,-4.096 -6.144,-7.168 -10.24,-8.704 -4.608,-1.536 -9.216,-1.024 -13.312,1.536 -4.096,2.048 -7.168,6.144 -8.704,10.24 -1.536,4.608 -1.024,9.216 1.536,13.312 2.048,4.608 5.632,7.68 10.24,8.704 1.536,0.512 3.584,0.512 5.12,0.512 3.072,0 5.632,-0.512 8.192,-2.048 4.096,-2.048 7.168,-6.144 8.704,-10.24 1.536,-4.608 1.024,-9.216 -1.536,-13.312 z m -12.288,14.848 c -1.536,1.024 -3.584,1.024 -5.632,0.512 -2.048,-0.512 -3.584,-2.048 -4.096,-3.584 -0.512,-1.536 -1.024,-3.584 -0.512,-5.632 0.512,-2.048 2.048,-3.584 3.584,-4.096 1.536,-1.024 3.584,-1.024 5.632,-0.512 2.048,0.512 3.584,2.048 4.096,3.584 2.048,3.584 0.512,8.192 -3.072,9.728 z"
   id="path6342"
   inkscape:connector-curvature="0" />
	</g>
</g>
<g
   id="g6352"
   transform="matrix(0.2025949,0,0,0.21883754,1.672994,-2.8815111)">
	<g
   id="g6350">
		<path
   d="M 175.273,156.478 92.841,49.982 80.041,33.598 C 76.457,28.99 70.825,27.454 65.705,30.014 55.465,34.622 35.497,46.91 17.065,80.19 c -18.432,33.28 -17.92,57.344 -16.384,68.608 1.024,5.632 5.12,9.728 10.752,10.24 l 20.48,1.536 133.12,14.336 c 1.024,0 1.536,0 1.536,0 4.096,0 7.68,-2.048 9.728,-5.632 2.048,-4.096 2.048,-8.704 -1.024,-12.8 z m -153.6,-6.656 -8.704,-1.024 c -1.024,0 -1.536,-1.024 -2.048,-1.536 C 9.385,137.534 9.385,116.03 25.769,85.31 42.665,54.59 60.585,43.326 69.289,39.742 c 1.024,-0.512 2.048,0 2.56,0.512 l 5.632,7.168 c -9.728,4.608 -26.112,15.872 -41.472,43.52 -15.36,28.16 -15.872,48.128 -14.336,58.88 z m 146.432,14.336 c -0.512,0.512 -0.512,0.512 -1.024,0.512 L 33.961,150.334 c -1.024,0 -1.536,-0.512 -1.536,-1.024 -1.024,-7.168 -2.048,-26.112 13.312,-53.76 15.36,-27.648 31.744,-36.864 37.888,-39.936 0.512,0 1.024,0 1.536,0.512 l 82.944,106.496 c 0.512,0.512 0.512,1.024 0,1.536 z"
   id="path6348"
   inkscape:connector-curvature="0" />
	</g>
</g>
<g
   id="g6358"
   transform="matrix(0.2025949,0,0,0.21883754,1.672994,-2.8815111)">
	<g
   id="g6356">
		<path
   d="m 98.985,85.31 c -1.536,-4.608 -4.608,-8.704 -8.704,-10.752 -4.096,-2.56 -9.216,-3.072 -13.824,-1.536 -4.608,1.536 -8.704,4.608 -10.752,8.704 -2.56,4.096 -3.072,9.216 -1.536,13.824 1.536,4.608 4.608,8.704 8.704,11.264 2.56,1.536 5.632,2.048 8.704,2.048 6.656,0 12.8,-3.584 15.872,-9.728 2.56,-4.096 3.072,-9.216 1.536,-13.824 z m -10.752,9.216 c -2.048,4.096 -7.168,5.12 -10.752,3.072 -2.048,-1.024 -3.072,-2.56 -3.584,-4.608 -0.512,-2.048 0,-4.096 1.024,-6.144 1.024,-2.048 2.56,-3.072 4.608,-3.584 0.512,0 1.536,-0.512 2.048,-0.512 1.536,0 2.56,0.512 3.584,1.024 2.048,1.024 3.072,2.56 3.584,4.608 0.512,2.048 0.512,4.096 -0.512,6.144 z"
   id="path6354"
   inkscape:connector-curvature="0" />
	</g>
</g>
<g
   id="g6364"
   transform="matrix(0.2025949,0,0,0.21883754,1.672994,-2.8815111)">
	<g
   id="g6362">
		<path
   d="m 107.177,121.662 c -7.168,-5.12 -16.384,-2.56 -20.48,5.12 -2.048,3.584 -2.56,7.68 -1.024,11.776 1.024,4.096 3.584,7.168 7.168,9.216 2.048,1.024 4.608,2.048 7.168,2.048 1.536,0 3.072,0 4.096,-0.512 4.096,-1.024 7.168,-3.584 9.216,-7.168 4.096,-7.168 1.536,-16.384 -6.144,-20.48 z m -2.56,14.336 c -1.536,2.56 -4.096,3.072 -6.656,2.048 -1.024,-0.512 -2.048,-1.536 -2.56,-3.072 -0.512,-1.536 0,-2.56 0.512,-3.584 0.512,-1.024 1.536,-2.048 3.072,-2.56 0,0.512 0.512,0 1.024,0 1.024,0 1.536,0 2.56,0.512 2.56,1.536 3.072,4.096 2.048,6.656 z"
   id="path6360"
   inkscape:connector-curvature="0" />
	</g>
</g>
<g
   id="g6370"
   transform="matrix(0.2025949,0,0,0.21883754,1.672994,-2.8815111)">
	<g
   id="g6368">
		<path
   d="m 63.657,128.83 -6.144,-12.8 c -1.024,-2.56 -4.096,-3.584 -6.656,-2.56 -2.56,1.024 -3.584,4.096 -2.56,6.656 l 6.144,12.8 c 1.024,2.048 2.56,3.072 4.608,3.072 0.512,0 1.536,0 2.048,-0.512 2.56,-1.024 3.584,-4.096 2.56,-6.656 z"
   id="path6366"
   inkscape:connector-curvature="0" />
	</g>
</g>
<g
   id="g6376"
   transform="matrix(0.2025949,0,0,0.21883754,1.672994,-2.8815111)">
	<g
   id="g6374">
		<path
   d="m 198.825,87.358 -6.144,-12.8 c -1.024,-2.56 -4.096,-3.584 -6.656,-2.56 -2.56,1.024 -3.584,4.096 -2.56,6.656 l 6.144,12.8 c 1.024,2.048 2.56,3.072 4.608,3.072 0.512,0 1.536,0 2.048,-0.512 2.56,-1.024 4.096,-4.096 2.56,-6.656 z"
   id="path6372"
   inkscape:connector-curvature="0" />
	</g>
</g>
<g
   id="g6382"
   transform="matrix(0.2025949,0,0,0.21883754,1.672994,-2.8815111)">
	<g
   id="g6380">
		<path
   d="m 288.937,151.358 -6.144,-12.8 c -1.024,-2.56 -4.096,-3.584 -6.656,-2.56 -2.56,1.024 -3.584,4.096 -2.56,6.656 l 6.144,12.8 c 1.024,2.048 2.56,3.072 4.608,3.072 0.512,0 1.536,0 2.048,-0.512 2.56,-1.024 3.584,-4.096 2.56,-6.656 z"
   id="path6378"
   inkscape:connector-curvature="0" />
	</g>
</g>
<g
   id="g6388"
   transform="matrix(0.2025949,0,0,0.21883754,1.672994,-2.8815111)">
	<g
   id="g6386">
		<path
   d="m 166.057,318.27 -6.144,-12.8 c -1.024,-2.56 -4.096,-3.584 -6.656,-2.56 -2.56,1.024 -3.584,4.096 -2.56,6.656 l 6.144,12.8 c 1.024,2.048 2.56,3.072 4.608,3.072 0.512,0 1.536,0 2.048,-0.512 2.56,-1.024 3.584,-4.096 2.56,-6.656 z"
   id="path6384"
   inkscape:connector-curvature="0" />
	</g>
</g>
<g
   id="g6394"
   transform="matrix(0.2025949,0,0,0.21883754,1.672994,-2.8815111)">
	<g
   id="g6392">
		<path
   d="m 271.017,307.006 -14.336,-2.56 c -2.56,-0.512 -5.632,1.536 -6.144,4.096 -0.512,2.56 1.536,5.632 4.096,6.144 l 14.336,2.56 c 0.512,0 0.512,0 1.024,0 2.56,0 4.608,-1.536 5.12,-4.096 1.024,-3.072 -1.024,-5.632 -4.096,-6.144 z"
   id="path6390"
   inkscape:connector-curvature="0" />
	</g>
</g>
<g
   id="g6400"
   transform="matrix(0.2025949,0,0,0.21883754,1.672994,-2.8815111)">
	<g
   id="g6398">
		<path
   d="m 294.569,211.262 -14.336,-2.56 c -2.56,-0.512 -5.632,1.536 -6.144,4.096 -0.512,2.56 1.536,5.632 4.096,6.144 l 14.336,2.56 c 0.512,0 0.512,0 1.024,0 2.56,0 4.608,-1.536 5.12,-4.096 0.512,-2.56 -1.536,-5.632 -4.096,-6.144 z"
   id="path6396"
   inkscape:connector-curvature="0" />
	</g>
</g>
<g
   id="g6406"
   transform="matrix(0.2025949,0,0,0.21883754,1.672994,-2.8815111)">
	<g
   id="g6404">
		<path
   d="m 329.897,131.39 -14.336,-2.56 c -2.56,-0.512 -5.632,1.536 -6.144,4.096 -0.512,3.072 1.536,5.632 4.096,6.144 l 14.336,2.56 c 0.512,0 0.512,0 1.024,0 2.56,0 4.608,-1.536 5.12,-4.096 0.512,-2.56 -1.536,-5.632 -4.096,-6.144 z"
   id="path6402"
   inkscape:connector-curvature="0" />
	</g>
</g>
<g
   id="g6412"
   transform="matrix(0.2025949,0,0,0.21883754,1.672994,-2.8815111)">
	<g
   id="g6410">
		<path
   d="m 198.825,273.726 -6.144,-12.8 c -1.024,-2.56 -4.096,-3.584 -6.656,-2.56 -2.56,1.024 -3.584,4.096 -2.56,6.656 l 6.144,12.8 c 1.024,2.048 2.56,3.072 4.608,3.072 0.512,0 1.536,0 2.048,-0.512 2.56,-1.024 3.584,-4.096 2.56,-6.656 z"
   id="path6408"
   inkscape:connector-curvature="0" />
	</g>
</g>
<g
   id="g6418"
   transform="matrix(0.2025949,0,0,0.21883754,1.672994,-2.8815111)">
	<g
   id="g6416">
		<path
   d="m 119.465,267.07 c -1.536,-2.048 -5.12,-2.56 -7.168,-0.512 l -11.264,9.216 c -2.048,1.536 -2.56,5.12 -0.512,7.168 1.024,1.024 2.56,2.048 4.096,2.048 1.024,0 2.048,-0.512 3.072,-1.024 l 11.264,-9.216 c 2.048,-2.048 2.56,-5.12 0.512,-7.68 z"
   id="path6414"
   inkscape:connector-curvature="0" />
	</g>
</g>
<g
   id="g6424"
   transform="matrix(0.2025949,0,0,0.21883754,1.672994,-2.8815111)">
	<g
   id="g6422">
		<path
   d="m 260.777,159.038 c -1.536,-2.048 -5.12,-2.56 -7.168,-0.512 l -11.264,8.704 c -2.048,2.048 -2.56,5.12 -0.512,7.168 1.024,1.024 2.56,2.048 4.096,2.048 1.024,0 2.048,-0.512 3.072,-1.024 l 11.264,-9.216 c 2.048,-1.536 2.56,-5.12 0.512,-7.168 z"
   id="path6420"
   inkscape:connector-curvature="0" />
	</g>
</g>
<g
   id="g6430"
   transform="matrix(0.2025949,0,0,0.21883754,1.672994,-2.8815111)">
	<g
   id="g6428">
		<path
   d="m 306.345,282.43 c -1.536,-2.048 -5.12,-2.56 -7.168,-0.512 l -11.264,9.216 c -2.048,1.536 -2.56,5.12 -0.512,7.168 1.024,1.024 2.56,1.536 4.096,1.536 1.024,0 2.048,-0.512 3.072,-1.024 l 11.264,-9.216 c 2.048,-1.536 2.56,-5.12 0.512,-7.168 z"
   id="path6426"
   inkscape:connector-curvature="0" />
	</g>
</g>
<g
   id="g6432"
   transform="translate(0,-314.87702)">
</g>
<g
   id="g6434"
   transform="translate(0,-314.87702)">
</g>
<g
   id="g6436"
   transform="translate(0,-314.87702)">
</g>
<g
   id="g6438"
   transform="translate(0,-314.87702)">
</g>
<g
   id="g6440"
   transform="translate(0,-314.87702)">
</g>
<g
   id="g6442"
   transform="translate(0,-314.87702)">
</g>
<g
   id="g6444"
   transform="translate(0,-314.87702)">
</g>
<g
   id="g6446"
   transform="translate(0,-314.87702)">
</g>
<g
   id="g6448"
   transform="translate(0,-314.87702)">
</g>
<g
   id="g6450"
   transform="translate(0,-314.87702)">
</g>
<g
   id="g6452"
   transform="translate(0,-314.87702)">
</g>
<g
   id="g6454"
   transform="translate(0,-314.87702)">
</g>
<g
   id="g6456"
   transform="translate(0,-314.87702)">
</g>
<g
   id="g6458"
   transform="translate(0,-314.87702)">
</g>
<g
   id="g6460"
   transform="translate(0,-314.87702)">
</g>
<path
   style="fill:#3de928;fill-opacity:1;stroke-width:0.35231006"
   d="m 38.283196,79.838739 c -2.333633,-0.41866 -6.387858,-1.71299 -8.249711,-2.63377 -2.739276,-1.35471 -6.164547,-4.18096 -6.725186,-5.54908 -0.306016,-0.74676 -1.030321,-1.39356 -2.311656,-2.06426 -1.156137,-0.60517 -2.833181,-2.03258 -4.408381,-3.75218 -4.511108,-4.92462 -7.7136421,-12.14949 -8.0420181,-18.14267 -0.181325,-3.30936 0.194476,-4.7968 1.34029,-5.30492 0.4232361,-0.18768 7.9985041,-1.00512 16.8339311,-1.81653 8.835424,-0.8114 16.115162,-1.5301 16.177194,-1.5971 0.06203,-0.067 -2.628817,-7.27726 -5.979654,-16.02279 -3.350844,-8.74554 -6.092442,-16.3458101 -6.092442,-16.8894901 0,-1.65548 3.398631,-3.7012 8.033025,-4.83528 3.077487,-0.75307997 9.593855,-0.77656997 12.814452,-0.0462 2.972381,0.67409 7.205534,2.88045 7.67871,4.00222 0.248922,0.59012 0.654978,0.83918 1.405769,0.86224 1.556273,0.0478 6.197193,2.6810997 8.649022,4.9075401 2.888687,2.62315 5.928457,6.81387 7.518502,10.36522 1.301753,2.90748 2.189398,6.64889 1.822476,7.68174 -0.105179,0.29606 0.113203,1.07798 0.485297,1.73761 3.223636,5.71472 2.823329,17.72744 -0.841807,25.26139 -0.666668,1.37037 -1.764492,3.01413 -2.43961,3.65278 -0.675121,0.63865 -1.470896,1.84782 -1.76839,2.68704 -1.991785,5.61872 -8.587215,12.0555 -15.334869,14.966 -2.539684,1.09545 -6.524737,1.64466 -7.52895,1.03762 -0.459589,-0.27782 -0.833197,-0.22889 -1.419214,0.18587 -1.765124,1.24927 -8.017399,1.95271 -11.61678,1.30698 z m 9.576281,-2.34028 c 1.03342,-0.37406 1.270218,-0.63697 1.266,-1.40562 -0.0097,-1.76861 -0.346541,-1.94339 -2.550349,-1.32335 -5.820154,1.6375 -15.074709,-0.75474 -19.336863,-4.99844 l -1.492241,-1.48577 -0.669296,0.8679 c -0.907452,1.17673 -0.866026,1.45837 0.409848,2.7863 2.493398,2.59515 7.50416,5.02597 12.251754,5.94358 2.265988,0.43796 8.503393,0.20094 10.121147,-0.3846 z m 8.510401,-1.28427 c 5.947798,-1.65872 13.417682,-7.91679 15.696578,-13.15016 l 0.797232,-1.8308 -0.868457,-0.82386 c -0.477645,-0.45313 -0.974355,-0.81711 -1.103788,-0.80886 -0.129433,0.008 -0.576009,0.80101 -0.992392,1.76166 -2.316936,5.34552 -10.093453,11.38329 -16.121988,12.51728 -2.153648,0.40511 -2.273514,0.48037 -2.273514,1.42752 0,0.54993 0.101696,1.10972 0.22599,1.24398 0.388273,0.4194 2.470877,0.26826 4.640339,-0.33676 z m -9.944426,-3.11649 c 0.954217,-0.22105 1.812726,-0.62086 1.907794,-0.88847 0.424448,-1.19477 -4.101472,-27.75302 -4.779472,-28.04609 -0.635046,-0.2745 -16.457027,21.51433 -16.457027,22.66337 0,0.63763 2.310229,2.60063 4.404788,3.74272 1.800805,0.98193 5.548059,2.26812 7.79861,2.67677 1.745559,0.31695 5.449732,0.23986 7.125307,-0.1483 z m 7.519042,-1.09824 c 4.064894,-0.90893 9.830979,-4.81956 12.521495,-8.49224 1.400235,-1.9114 2.922991,-4.877 2.643886,-5.14905 -0.08178,-0.0797 -2.894448,-2.03192 -6.250384,-4.33826 -7.083359,-4.86797 -16.394213,-10.71774 -16.638696,-10.45366 -0.320646,0.34636 4.287395,27.60104 4.828783,28.56025 0.209579,0.37133 0.777562,0.3464 2.894916,-0.12704 z m -30.446061,-4.52862 c 0.301107,-0.49639 0.547465,-0.96295 0.547465,-1.03681 0,-0.0739 -0.774825,-0.67662 -1.721835,-1.33946 -4.76765,-3.33701 -9.442821,-12.89118 -9.459608,-19.33163 -0.0049,-1.88555 -0.02425,-1.92235 -1.010034,-1.92235 -1.43457,0 -1.841456,1.03163 -1.584548,4.01748 0.616545,7.16563 5.258376,15.76776 10.549625,19.5503 1.667693,1.19218 1.989113,1.19968 2.678935,0.0625 z m 6.552754,-8.80074 c 2.412968,-3.22221 6.165656,-8.45373 8.33931,-11.6256 l 3.952098,-5.76703 -1.266987,0.0269 c -0.696843,0.0148 -6.91106,0.55034 -13.809371,1.19002 l -12.542384,1.16306 -0.102686,1.92934 c -0.29609,5.56319 4.114529,14.75734 8.628833,17.98722 0.892134,0.6383 1.80024,1.11421 2.018018,1.05757 0.217781,-0.0566 2.370206,-2.73931 4.783169,-5.96153 z m 47.060461,-4.0203 c 1.688402,-3.73704 2.23378,-6.37079 2.427865,-11.72461 0.17804,-4.91105 -0.251593,-7.98293 -1.473442,-10.53515 -0.442781,-0.9249 -0.627967,-1.01819 -1.582826,-0.79733 -0.59475,0.13757 -1.134404,0.3019 -1.199224,0.36517 -0.06482,0.0633 0.237847,1.07385 0.672592,2.24573 0.710242,1.9145 0.789881,2.70654 0.784893,7.80618 -0.0051,5.24507 -0.07681,5.89765 -0.945137,8.60478 -0.516767,1.61111 -1.465241,3.7918 -2.107715,4.84599 -0.642473,1.05419 -1.168135,1.99637 -1.168135,2.09373 0,0.0974 0.419489,0.41647 0.932202,0.70912 0.85702,0.48919 0.99533,0.46858 1.714867,-0.25546 0.430462,-0.43315 1.30529,-1.94432 1.94406,-3.35815 z m -4.928794,-0.19277 c 0.598916,-1.00816 1.482176,-3.109 1.962801,-4.66854 1.561295,-5.06616 1.130809,-15.26733 -0.711509,-16.86057 -0.677511,-0.58591 -26.201371,7.69858 -25.812525,8.37818 0.437791,0.76515 22.30854,14.95133 23.083894,14.97307 0.213619,0.006 0.87842,-0.81397 1.477339,-1.82214 z M 45.062865,40.545149 c 0,-0.20139 -0.237817,-0.36616 -0.528481,-0.36616 -0.290667,0 -0.434206,0.16477 -0.318978,0.36616 0.115226,0.20139 0.353046,0.36616 0.528483,0.36616 0.175437,0 0.318976,-0.16477 0.318976,-0.36616 z m 20.690985,-7.91155 7.177694,-2.49549 -0.166801,-1.59851 c -0.59082,-5.662 -7.978853,-14.4894 -13.578713,-16.22418 l -0.967834,-0.29983 -3.198397,7.13869 c -3.06356,6.83775 -7.923034,18.60144 -7.923034,19.17987 0,0.37185 9.830854,-2.6319 18.657085,-5.70055 z m -17.987917,-1.3456 c 1.645156,-3.68171 4.239099,-9.81628 5.764316,-13.63237 l 2.773123,-6.93834 -0.959233,-0.8371804 c -3.249032,-2.83563 -12.61464,-3.4359397 -18.225796,-1.16822 -3.756217,1.5180604 -3.945426,0.10535 2.093461,15.6306504 2.917949,7.50171 5.36332,13.63948 5.434149,13.63948 0.07083,0 1.474821,-3.01231 3.11998,-6.69402 z m 28.634855,-2.58355 c 0.859414,-0.6788 0.497937,-3.04674 -0.965655,-6.32573 -2.679731,-6.00362 -8.060569,-11.71672 -13.006234,-13.8093804 -2.10932,-0.89251 -2.664342,-0.79558 -3.095568,0.54063 -0.473107,1.4659404 -0.483092,1.4100004 0.251676,1.4100004 1.100411,0 4.566527,2.1082 6.747696,4.10416 3.888418,3.55824 7.55362,9.52768 8.102836,13.19693 0.222461,1.48625 0.846722,1.76685 1.965249,0.88339 z M 39.469641,5.9459189 c 2.997252,-0.68143 8.141696,-0.69331 11.058314,-0.0255 1.234611,0.28268 3.181998,1.0250097 4.327519,1.6496297 l 2.082774,1.13567 0.333501,-0.9475 c 0.569991,-1.6193897 0.395969,-1.9192797 -1.785145,-3.0762797 -5.327964,-2.82628 -14.773542,-2.95646 -20.256873,-0.27919 -1.023984,0.49997 -2.146662,1.14539 -2.494836,1.43426 -0.589795,0.48935 -0.596736,0.60107 -0.101606,1.6353097 l 0.531435,1.11008 1.966016,-1.04848 c 1.081308,-0.57667 3.033812,-1.2912497 4.338901,-1.5879697 z"
   id="path6469"
   inkscape:connector-curvature="0" /><path
   style="fill:#3de928;fill-opacity:1;stroke-width:0.35231006"
   d="M 20.656062,33.574629 C 14.223853,32.807309 7.6829789,32.063239 6.1207859,31.921149 2.088673,31.554409 1.7786261,31.102719 1.9868618,25.898719 2.223344,19.988819 6.0375179,11.888469 10.849907,7.0758486 c 2.691656,-2.6917897 4.705202,-3.8052897 5.856508,-3.2386597 0.880546,0.43337 20.33704,27.3173601 20.724525,28.6360901 0.141279,0.48083 0.01976,1.13192 -0.313885,1.68199 -0.486865,0.80262 -0.767491,0.89308 -2.655234,0.85598 -1.160961,-0.0228 -7.373548,-0.6693 -13.805759,-1.43662 z m 15.253274,-0.62732 C 35.908384,32.681329 20.05077,10.484339 19.133195,9.4645986 c -0.656394,-0.72947 -2.319742,0.47122 -5.024806,3.6271804 -3.590649,4.18916 -5.9821011,10.11243 -5.9906881,14.83804 l -0.004,2.21418 12.6271311,1.49824 c 13.392066,1.58901 15.170085,1.74198 15.168526,1.30507 z M 6.0797779,28.154259 c 0,-6.7972 5.5010291,-17.20994 10.5998901,-20.0642504 0.923407,-0.51692 0.928989,-0.54024 0.338984,-1.41634 -0.790548,-1.1738897 -1.531896,-1.1380497 -3.276369,0.1584 C 8.7080269,10.573419 4.2030672,19.240319 3.7933262,25.972439 c -0.211584,3.47636 -0.0595,3.95405 1.2588617,3.95405 1.00259,0 1.02759,-0.0431 1.02759,-1.77223 z"
   id="path6471"
   inkscape:connector-curvature="0" /><path
   style="fill:#3de928;fill-opacity:1;stroke-width:0.35231006"
   d="m 16.150041,20.034429 c -1.295354,-1.10062 -1.749673,-2.91514 -1.130604,-4.51557 0.999057,-2.58278 3.675927,-3.16224 5.501031,-1.19082 1.603534,1.7321 1.603534,3.46739 0,5.19949 -1.368811,1.47855 -3.003684,1.66817 -4.370427,0.5069 z m 3.150088,-1.82508 c 0.782606,-0.84535 0.851571,-1.4581 0.254237,-2.2589 -1.088503,-1.45926 -2.966104,-0.72308 -2.966104,1.16298 0,1.73495 1.542997,2.3585 2.711867,1.09592 z"
   id="path6473"
   inkscape:connector-curvature="0" /><path
   style="fill:#3de928;fill-opacity:1;stroke-width:0.35231006"
   d="m 12.936343,26.173339 c -0.806393,-1.06951 -1.439266,-3.30357 -1.071458,-3.78229 0.201388,-0.26211 0.561352,-0.39566 0.799919,-0.29677 0.598355,0.24802 2.02603,3.63585 1.741649,4.13288 -0.308407,0.53902 -1.043408,0.51211 -1.47011,-0.0538 z"
   id="path6475"
   inkscape:connector-curvature="0" /><path
   style="fill:#3de928;fill-opacity:1;stroke-width:0.35231006"
   d="m 20.0424,28.718859 c -0.402512,-0.4628 -0.828305,-1.36245 -0.946205,-1.99921 -0.179149,-0.96756 -0.04508,-1.34061 0.816168,-2.2709 1.269676,-1.37147 2.387461,-1.42047 3.76854,-0.1652 2.083971,1.89413 0.983676,5.27678 -1.716414,5.27678 -0.803414,0 -1.428098,-0.27348 -1.922089,-0.84147 z m 2.762037,-1.78522 c 0.463599,-0.79388 0.03957,-1.76724 -0.769878,-1.76724 -1.000208,0 -1.521138,1.25826 -0.830003,2.0048 0.618618,0.66822 1.113886,0.59468 1.599881,-0.23756 z"
   id="path6477"
   inkscape:connector-curvature="0" /><path
   style="fill:#3de928;fill-opacity:1;stroke-width:0.35231006"
   d="m 18.522924,51.524239 c -0.477748,-0.40592 -1.042132,-1.3059 -1.254185,-1.99994 -0.829931,-2.71633 1.727672,-5.47898 4.242388,-4.58251 1.45069,0.51715 2.534771,1.9543 2.534771,3.3603 0,1.33684 -0.819011,3.08768 -1.676143,3.58318 -1.05659,0.61081 -2.907486,0.4371 -3.846831,-0.36103 z m 3.339876,-1.99023 c 0.702356,-1.15787 0.359089,-2.32711 -0.773323,-2.63412 -1.147788,-0.31117 -1.932324,0.25226 -2.06808,1.48525 -0.22295,2.0249 1.811121,2.84735 2.841403,1.14887 z"
   id="path6479"
   inkscape:connector-curvature="0" /><path
   style="fill:#3de928;fill-opacity:1;stroke-width:0.35231006"
   d="m 22.237985,58.975229 c -0.518704,-0.56029 -0.136692,-1.26063 1.361731,-2.49649 1.447189,-1.19361 1.634711,-1.25815 2.118647,-0.7292 0.482776,0.52769 0.401468,0.71133 -0.896626,2.02506 -1.370012,1.38651 -2.098349,1.72495 -2.583752,1.20063 z"
   id="path6481"
   inkscape:connector-curvature="0" /><path
   style="fill:#3de928;fill-opacity:1;stroke-width:0.35231006"
   d="m 28.791663,52.171469 c -1.154952,-0.64859 -2.198243,-2.81365 -1.924192,-3.9931 0.118549,-0.5102 0.620789,-1.36537 1.116093,-1.90038 1.979363,-2.13806 5.553865,-0.54717 5.553865,2.47183 0,2.54134 -2.764318,4.53439 -4.745766,3.42165 z m 2.894395,-2.49508 c 0.37841,-0.66138 -0.152473,-2.11453 -0.861283,-2.35754 -1.467211,-0.50301 -2.618157,0.59989 -2.180482,2.08945 0.389058,1.32409 2.339218,1.49596 3.041765,0.26809 z"
   id="path6483"
   inkscape:connector-curvature="0" /><path
   style="fill:#3de928;fill-opacity:1;stroke-width:0.35231006"
   d="m 39.66514,68.157729 c -2.513475,-2.28451 -0.09955,-6.46072 2.937192,-5.0815 2.011897,0.91376 2.383258,3.23997 0.79169,4.95914 -1.228894,1.32742 -2.362136,1.3646 -3.728882,0.12236 z m 2.291786,-1.20449 c 0.249365,-0.17073 0.401909,-0.70372 0.338984,-1.18442 -0.143144,-1.09354 -1.729653,-1.26875 -1.918094,-0.21182 -0.256633,1.43943 0.516981,2.12345 1.57911,1.39624 z"
   id="path6485"
   inkscape:connector-curvature="0" /><path
   style="fill:#3de928;fill-opacity:1;stroke-width:0.35231006"
   d="m 40.393995,58.029319 c -0.612325,-0.81212 -1.459181,-3.33391 -1.2846,-3.82533 0.368846,-1.03826 1.265092,-0.41598 2.055725,1.42733 0.601005,1.40122 0.720267,2.03007 0.451372,2.38005 -0.458342,0.59654 -0.782656,0.60131 -1.222497,0.0179 z"
   id="path6487"
   inkscape:connector-curvature="0" /><path
   style="fill:#3de928;fill-opacity:1;stroke-width:0.35231006"
   d="m 33.022516,66.162669 c -0.903556,-1.92604 -0.869814,-2.5494 0.137992,-2.5494 0.687869,0 2.297215,3.33763 1.923929,3.99005 -0.487578,0.85216 -1.229477,0.3338 -2.061921,-1.44065 z"
   id="path6489"
   inkscape:connector-curvature="0" /><path
   style="fill:#3de928;fill-opacity:1;stroke-width:0.35231006"
   d="m 54.667203,66.086709 c -1.043117,-0.19217 -1.831952,-0.54886 -1.950251,-0.88186 -0.361299,-1.01701 0.166083,-1.31639 1.88501,-1.07009 2.097967,0.30062 2.664303,0.53882 2.664303,1.12057 0,0.89896 -0.815769,1.1599 -2.599062,0.83138 z"
   id="path6491"
   inkscape:connector-curvature="0" /><path
   style="fill:#3de928;fill-opacity:1;stroke-width:1.67320764"
   d=""
   id="path6493"
   inkscape:connector-curvature="0" /><path
   style="fill:#3de928;fill-opacity:1;stroke-width:0.35231006"
   d="m 51.943901,57.936639 c -0.400098,-0.3027 -0.899183,-1.11243 -1.109072,-1.7994 -0.514876,-1.68517 0.220178,-3.6056 1.695474,-4.42967 1.324873,-0.74004 2.529982,-0.47632 3.80376,0.83242 1.294018,1.32954 1.311628,3.60652 0.03852,4.9817 -1.040087,1.12347 -3.221995,1.32791 -4.42868,0.41495 z m 3.220666,-1.71982 c 0.522886,-0.5648 0.522886,-1.85185 0,-2.41666 -0.712504,-0.76962 -2.293413,-0.53679 -2.610449,0.38447 -0.306907,0.89183 -0.127772,1.76392 0.450129,2.19136 0.559853,0.41409 1.707925,0.3295 2.16032,-0.15917 z"
   id="path6497"
   inkscape:connector-curvature="0" /><path
   style="fill:#3de928;fill-opacity:1;stroke-width:0.35231006"
   d="m 59.978132,61.809119 c 0,-0.82599 2.253993,-2.95594 3.128086,-2.95594 1.048785,0 0.666177,1.34712 -0.719237,2.53236 -1.513574,1.29488 -2.408849,1.45231 -2.408849,0.42358 z"
   id="path6499"
   inkscape:connector-curvature="0" /><path
   style="fill:#3de928;fill-opacity:1;stroke-width:0.35231006"
   d="m 58.731561,45.050309 c -0.926618,-0.19484 -1.601213,-1.0421 -1.27863,-1.60589 0.163842,-0.28636 0.863466,-0.35932 2.111371,-0.2202 2.035377,0.22691 2.648129,0.62261 2.333889,1.50716 -0.199623,0.56192 -1.424382,0.68527 -3.16663,0.31893 z"
   id="path6501"
   inkscape:connector-curvature="0" /><path
   style="fill:#3de928;fill-opacity:1;stroke-width:0.35231006"
   d="m 66.455129,51.662749 c -1.395476,-1.35838 -1.682662,-3.16623 -0.756722,-4.76358 1.473274,-2.54157 4.950529,-2.28411 6.006073,0.4447 0.968309,2.50329 -0.291435,4.80477 -2.831377,5.17276 -1.137823,0.16485 -1.504431,0.0354 -2.417974,-0.85388 z m 3.285722,-1.3045 c 0.55995,-0.60484 0.511259,-2.30656 -0.0812,-2.83767 -1.54429,-1.3844 -3.742865,0.93403 -2.402671,2.53366 0.695079,0.82963 1.864732,0.97279 2.483866,0.30401 z"
   id="path6503"
   inkscape:connector-curvature="0" /><path
   style="fill:#3de928;fill-opacity:1;stroke-width:0.35231006"
   d="m 68.753752,41.103129 c -2.122298,-1.26656 -1.974914,-4.5398 0.249622,-5.54379 2.762458,-1.24676 5.094983,2.34885 3.093415,4.76852 -0.964115,1.16551 -2.206407,1.4536 -3.343037,0.77527 z m 2.241339,-2.75494 c 0,-0.67108 -0.203977,-0.94669 -0.764226,-1.03263 -0.832916,-0.12776 -1.305989,0.65748 -0.968471,1.60755 0.122508,0.34485 0.510068,0.52801 0.968471,0.4577 0.560249,-0.0859 0.764226,-0.36155 0.764226,-1.03262 z"
   id="path6505"
   inkscape:connector-curvature="0" /><path
   style="fill:#3de928;fill-opacity:1;stroke-width:0.35231006"
   d="m 66.595414,27.641139 c -1.765942,-0.33781 -2.275034,-0.76854 -1.959186,-1.65762 0.145839,-0.41051 0.562299,-0.47729 1.837174,-0.29462 2.211834,0.31694 2.657281,0.53625 2.657281,1.3083 0,0.88654 -0.544356,1.0248 -2.535269,0.64394 z"
   id="path6507"
   inkscape:connector-curvature="0" /><path
   style="fill:#3de928;fill-opacity:1;stroke-width:0.35231006"
   d="m 58.974764,23.406599 c -1.260922,-1.36201 -1.359939,-2.93013 -0.26782,-4.24132 1.160469,-1.39325 2.908843,-1.41723 4.167955,-0.0572 1.612114,1.74136 0.598229,4.69289 -1.781488,5.18612 -0.909818,0.18857 -1.256979,0.0431 -2.118647,-0.88763 z m 2.673225,-1.48506 c 0.489758,-0.98849 -0.297761,-2.05249 -1.271956,-1.71851 -0.713198,0.24451 -1.032621,1.59258 -0.510894,2.15614 0.443961,0.47955 1.45088,0.23238 1.78285,-0.43763 z"
   id="path6509"
   inkscape:connector-curvature="0" /><path
   style="fill:#3de928;fill-opacity:1;stroke-width:0.35231006"
   d="m 58.271206,30.567269 c -0.899367,-1.57389 -1.173439,-2.8022 -0.731722,-3.27933 0.614044,-0.66328 1.322297,-0.0471 1.933735,1.68226 0.942922,2.66695 0.07119,3.82519 -1.202013,1.59707 z"
   id="path6511"
   inkscape:connector-curvature="0" /><path
   style="fill:#3de928;fill-opacity:1;stroke-width:1.67320764"
   d=""
   id="path6513"
   inkscape:connector-curvature="0" /><path
   style="fill:#3de928;fill-opacity:1;stroke-width:0.35231006"
   d="m 50.674995,35.085779 c -0.329921,-0.57662 0.127238,-1.28032 1.530174,-2.35535 2.373808,-1.81899 3.313705,-0.39515 1.029261,1.55922 -1.329761,1.13763 -2.207778,1.41074 -2.559435,0.79613 z"
   id="path6515"
   inkscape:connector-curvature="0" /><path
   style="fill:#3de928;fill-opacity:1;stroke-width:0.35231006"
   d="m 43.803247,26.374269 c -1.170932,-0.24481 -2.469198,-2.16086 -2.469198,-3.64417 0,-1.79422 1.525254,-3.42227 3.206189,-3.42227 1.655489,0 2.813577,0.9012 3.269264,2.54409 0.497902,1.79509 -0.276542,3.52114 -1.910807,4.25873 -0.63417,0.28622 -1.196072,0.49795 -1.248671,0.47053 -0.0526,-0.0274 -0.433648,-0.12054 -0.846777,-0.20691 z m 1.869788,-2.37958 c 0.52288,-0.56481 0.52288,-1.85186 0,-2.41666 -0.522882,-0.56481 -1.714407,-0.56481 -2.237291,0 -0.95085,1.02708 -0.234484,2.85605 1.118644,2.85605 0.391528,0 0.894917,-0.19773 1.118647,-0.43939 z"
   id="path6517"
   inkscape:connector-curvature="0" /><path
   style="fill:#3de928;fill-opacity:1;stroke-width:0.35231006"
   d="m 47.07069,16.406709 c -1.8813,-2.03213 -0.871908,-5.82082 1.714266,-6.4343804 1.428286,-0.33886 3.221331,0.6907704 3.902285,2.2408204 1.645777,3.74628 -2.893191,7.13526 -5.616551,4.19356 z m 4.033623,-2.38035 c 0.141802,-1.2819 -0.466542,-2.04174 -1.634664,-2.04174 -1.176185,0 -1.775343,0.76048 -1.634666,2.07479 0.240551,2.24742 3.020182,2.21932 3.26933,-0.0331 z"
   id="path6519"
   inkscape:connector-curvature="0" /><path
   style="fill:#3de928;fill-opacity:1;stroke-width:0.35231006"
   d="m 39.655489,15.683939 c -0.780944,-1.80102 -0.729455,-2.60084 0.167431,-2.60084 0.560393,0 2.311428,3.51773 2.011747,4.04149 -0.508128,0.88809 -1.435152,0.27524 -2.179178,-1.44065 z"
   id="path6521"
   inkscape:connector-curvature="0" /></svg>